<?xml version="1.0" encoding="UTF-8"?>
<svg width="150" height="40" id="OBJECTS" xmlns="http://www.w3.org/2000/svg" viewBox="0 0 456 319.76">
  <path d="m166.73,0c-38.4,0-63.66,11.16-86.6,28.99V6.95c0-3.84-3.11-6.95-6.95-6.95H6.95C3.11,0,0,3.11,0,6.95v305.86c0,3.84,3.11,6.95,6.95,6.95h66.23c3.84,0,6.95-3.11,6.95-6.95v-152.61c0-14.61,7.98-35.49,17.77-46.34,24.22-26.85,51.64-33.74,68.83-33.74h51.44V0h-51.44Z"/>
  <path d="m292.96,0h-54.58v80.13h57.76c43.96,0,79.73,35.76,79.73,79.73s-35.76,79.73-79.73,79.73h-57.76l-6.77,80.13h64.53c87.22,0,158.35-70.21,159.83-157.09C457.5,73.19,382.41,0,292.96,0Z"/>
  <path d="m231.44,116.23h-66.23c-3.84,0-6.95,1.38-6.95,3.08v197.36c0,1.7,3.11,3.08,6.95,3.08h73.18V119.31c0-1.7-3.11-3.08-6.95-3.08Z"/>
</svg>